<?xml version="1.0" encoding="UTF-8" standalone="no"?>
<!DOCTYPE svg PUBLIC "-//W3C//DTD SVG 1.1//EN" "http://www.w3.org/Graphics/SVG/1.1/DTD/svg11.dtd">
<svg width="100%" height="100%" viewBox="0 0 355 119" version="1.1" xmlns="http://www.w3.org/2000/svg" xmlns:xlink="http://www.w3.org/1999/xlink" xml:space="preserve" xmlns:serif="http://www.serif.com/" style="fill-rule:evenodd;clip-rule:evenodd;stroke-linejoin:round;stroke-miterlimit:2;">
    <g transform="matrix(1,0,0,1,-1001.67,-1067.19)">
        <g transform="matrix(5.22554,0,0,5.22554,-2140.63,-556.049)">
            <g transform="matrix(1.83426,0,0,2.64516,-798.435,-561.1)">
                <g transform="matrix(0.151413,0,0,0.151413,501.091,130.062)">
                    <path d="M1830.03,1370.24C1820.18,1369.49 1810.33,1368.69 1800.46,1368.01C1797.4,1367.79 1794.6,1367.94 1793.37,1371.84C1793.03,1372.91 1790.38,1373.26 1788.02,1373.96C1786.5,1373.98 1785.75,1373.99 1785,1374C1770.33,1373.95 1755.65,1373.9 1740.34,1373.6C1739.48,1372.56 1739.25,1371.78 1738.96,1370.66C1737.94,1369.58 1736.97,1368.84 1735.64,1368.05C1734.18,1367 1733.07,1366.01 1731.99,1364.56C1731.95,1361.4 1731.89,1358.69 1731.87,1355.54C1731.89,1353.08 1731.88,1351.04 1731.89,1348.58C1731.92,1346.42 1731.92,1344.69 1732,1342.66C1732.37,1341.58 1732.67,1340.8 1733.15,1340.39C1733.53,1344.4 1733.86,1348.04 1733.92,1351.68C1733.97,1354.69 1734.56,1356.75 1738.19,1357.17C1739.57,1357.33 1740.79,1359.13 1742.04,1360.22C1745.93,1363.61 1748.71,1368.52 1755.06,1368.24C1763.38,1367.88 1771.76,1367.49 1780.04,1368.1C1785.41,1368.49 1788.47,1364.71 1790.19,1361.92C1792.28,1358.52 1794.39,1357.77 1797.56,1357.59C1801.38,1357.37 1805.22,1357.11 1809.04,1357.14C1828.68,1357.28 1943.07,1357.5 1962.72,1358.15C1962.14,1361.91 1961.55,1365.22 1960.5,1368.6C1950.94,1368.47 1847.09,1368.09 1838,1368.17C1835.34,1368.2 1832.69,1369.52 1830.03,1370.24Z" style="fill:rgb(121,36,28);fill-rule:nonzero;"/>
                </g>
                <g transform="matrix(0.151413,0,0,0.151413,501.091,130.062)">
                    <path d="M1962.7,1357.69C1943.07,1357.5 1828.68,1357.28 1809.04,1357.14C1805.22,1357.11 1801.38,1357.37 1797.56,1357.59C1794.39,1357.77 1792.28,1358.52 1790.19,1361.92C1788.47,1364.71 1785.41,1368.49 1780.04,1368.1C1771.76,1367.49 1763.38,1367.88 1755.06,1368.24C1748.71,1368.52 1745.93,1363.61 1742.04,1360.22C1740.79,1359.13 1739.57,1357.33 1738.19,1357.17C1734.56,1356.75 1733.97,1354.69 1733.92,1351.68C1733.86,1348.04 1733.53,1344.4 1733.16,1339.92C1733.25,1336.25 1733.5,1333.42 1734.15,1330.59C1736.98,1330.43 1740.78,1331.17 1741.61,1329.93C1744.28,1325.93 1747.95,1326.09 1751.69,1326.09C1788.48,1326.04 1825.27,1326.11 1862.07,1326.02C1865.61,1326.01 1963.16,1326.26 1963.06,1330.7C1964.86,1330.9 1966.34,1331.07 1967.85,1331.64C1967.95,1332.7 1968.05,1333.37 1968.08,1334.03C1968.26,1339.18 1971.14,1345.11 1963.79,1348.06C1963.13,1348.33 1962.87,1350.11 1962.79,1351.21C1962.62,1353.36 1962.72,1355.53 1962.7,1357.69M1775.78,1356.88C1776.43,1356.88 1777.22,1357.12 1777.71,1356.83C1779.09,1356.04 1780.35,1355.03 1781.65,1354.11C1780.78,1353.13 1779.87,1351.29 1779.06,1351.33C1776.82,1351.43 1774.63,1352.33 1772.42,1352.92C1773.27,1354.21 1774.11,1355.5 1775.78,1356.88M1750.17,1343.27C1748.29,1342.6 1746.43,1341.64 1744.5,1341.41C1743.85,1341.33 1742.3,1343.15 1742.36,1344.03C1742.44,1345.4 1743.54,1346.71 1744.21,1348.04C1746.18,1346.68 1748.15,1345.32 1750.17,1343.27Z" style="fill:rgb(174,66,48);fill-rule:nonzero;"/>
                </g>
                <g transform="matrix(0.151413,0,0,0.151413,501.091,130.062)">
                    <path d="M1962.72,1358.15C1962.72,1355.53 1962.62,1353.36 1962.79,1351.21C1962.87,1350.11 1963.13,1348.33 1963.79,1348.06C1971.14,1345.11 1968.26,1339.18 1968.08,1334.03C1968.05,1333.37 1967.95,1332.7 1968.15,1331.32C1968.71,1326.72 1968.99,1322.83 1969.59,1318.86C1971.16,1318.52 1972.43,1318.27 1973.87,1318.18C1974.27,1318.56 1974.49,1318.78 1974.62,1319.41C1974.6,1323.88 1974.64,1327.96 1974.65,1332.4C1974.65,1333.51 1974.67,1334.25 1974.68,1335.32C1974.68,1336.11 1974.71,1336.55 1974.71,1337.33C1974.72,1338.11 1974.74,1338.56 1974.73,1339.47C1974.66,1345.07 1974.92,1350.22 1974.48,1355.32C1974.31,1357.23 1972.95,1359.94 1971.38,1360.65C1967.56,1362.37 1966.39,1365.1 1966.39,1368.84C1964.83,1368.78 1963.28,1368.71 1961.34,1368.59C1961.55,1365.22 1962.14,1361.91 1962.72,1358.15Z" style="fill:rgb(144,46,35);fill-rule:nonzero;"/>
                </g>
                <g transform="matrix(0.151413,0,0,0.151413,501.091,130.062)">
                    <path d="M1733.76,1330.59C1733.5,1333.42 1733.25,1336.25 1732.98,1339.55C1732.67,1340.8 1732.37,1341.58 1732,1342.66C1730,1336.94 1729.9,1331.02 1733.27,1325.46C1733.68,1327.31 1733.72,1328.95 1733.76,1330.59Z" style="fill:rgb(74,20,16);fill-rule:nonzero;"/>
                </g>
                <g transform="matrix(0.151413,0,0,0.151413,501.091,130.062)">
                    <path d="M1731.87,1355.54C1731.67,1353.8 1731.51,1351.62 1731.61,1349.22C1731.88,1351.04 1731.89,1353.08 1731.87,1355.54Z" style="fill:rgb(74,20,16);fill-rule:nonzero;"/>
                </g>
                <g transform="matrix(0.151413,0,0,0.151413,501.091,130.062)">
                    <path d="M1738.96,1370.66C1738.08,1370.22 1737.16,1369.45 1736.11,1368.39C1736.97,1368.84 1737.94,1369.58 1738.96,1370.66Z" style="fill:rgb(74,20,16);fill-rule:nonzero;"/>
                </g>
                <g transform="matrix(0.151413,0,0,0.151413,501.091,130.062)">
                    <path d="M1734.77,1324.41C1736.63,1324.18 1738.26,1324.11 1740.16,1324.03C1740.48,1321.98 1740.77,1320.1 1741.16,1317.57C1745.86,1317.57 1750.47,1317.56 1755.08,1317.57C1792.73,1317.63 1925.12,1317.7 1962.77,1317.79C1964.74,1317.8 1966.71,1318.08 1968.98,1318.59C1968.99,1322.83 1968.71,1326.72 1968.12,1330.91C1966.34,1331.07 1964.86,1330.9 1963.06,1330.7C1963.16,1326.26 1865.61,1326.01 1862.07,1326.02C1825.27,1326.11 1788.48,1326.04 1751.69,1326.09C1747.95,1326.09 1744.28,1325.93 1741.61,1329.93C1740.78,1331.17 1736.98,1330.43 1734.15,1330.59C1733.72,1328.95 1733.68,1327.31 1733.59,1325.33C1733.87,1324.84 1734.2,1324.7 1734.77,1324.41Z" style="fill:rgb(239,135,86);fill-rule:nonzero;"/>
                </g>
                <g transform="matrix(0.151413,0,0,0.151413,501.091,130.062)">
                    <path d="M1775.37,1356.83C1774.11,1355.5 1773.27,1354.21 1772.42,1352.92C1774.63,1352.33 1776.82,1351.43 1779.06,1351.33C1779.87,1351.29 1780.78,1353.13 1781.65,1354.11C1780.35,1355.03 1779.09,1356.04 1777.71,1356.83C1777.22,1357.12 1776.43,1356.88 1775.37,1356.83Z" style="fill:rgb(138,38,27);fill-rule:nonzero;"/>
                </g>
                <g transform="matrix(0.151413,0,0,0.151413,501.091,130.062)">
                    <path d="M1750.15,1343.62C1748.15,1345.32 1746.18,1346.68 1744.21,1348.04C1743.54,1346.71 1742.44,1345.4 1742.36,1344.03C1742.3,1343.15 1743.85,1341.33 1744.5,1341.41C1746.43,1341.64 1748.29,1342.6 1750.15,1343.62Z" style="fill:rgb(138,38,27);fill-rule:nonzero;"/>
                </g>
                <g transform="matrix(0.151413,0,0,0.151413,501.091,130.062)">
                    <path d="M1879.88,1319.41C1880.06,1323.1 1880.17,1327.19 1880.11,1331.66C1879.89,1327.96 1879.85,1323.88 1879.88,1319.41Z" style="fill:rgb(74,20,16);fill-rule:nonzero;"/>
                </g>
                <g transform="matrix(0.151413,0,0,0.151413,501.091,130.062)">
                    <path d="M1879.93,1335.32C1880.02,1335.53 1880.09,1336.07 1880.07,1336.81C1879.96,1336.55 1879.93,1336.11 1879.93,1335.32Z" style="fill:rgb(74,20,16);fill-rule:nonzero;"/>
                </g>
            </g>
        </g>
    </g>
</svg>
