<?xml version="1.0" encoding="UTF-8" standalone="no"?>
<!DOCTYPE svg PUBLIC "-//W3C//DTD SVG 1.1//EN" "http://www.w3.org/Graphics/SVG/1.1/DTD/svg11.dtd">
<svg width="100%" height="100%" viewBox="0 0 355 119" version="1.1" xmlns="http://www.w3.org/2000/svg" xmlns:xlink="http://www.w3.org/1999/xlink" xml:space="preserve" xmlns:serif="http://www.serif.com/" style="fill-rule:evenodd;clip-rule:evenodd;stroke-linejoin:round;stroke-miterlimit:2;">
    <g transform="matrix(1,0,0,1,-543.307,-925.926)">
        <g transform="matrix(5.22554,0,0,5.22554,-2140.63,-556.049)">
            <g transform="matrix(0.987102,0,0,1.24196,-158.024,-32.4672)">
                <g transform="matrix(0.151413,0,0,0.151413,501.091,130.062)">
                    <path d="M1184.47,917.712C1184.6,893.848 1184.74,869.984 1185.34,845.628C1187.71,844.218 1191.14,843.454 1191.25,842.358C1191.7,837.848 1195.07,838.85 1197.61,837.715C1200.09,836.603 1201.93,834.087 1204.12,832.266C1204.41,832.023 1205.09,832.24 1205.59,832.242C1235.16,832.344 1513.72,832.402 1543.29,832.625C1545.82,832.644 1548.36,833.708 1550.88,834.376C1553.36,835.036 1555.78,836.263 1558.28,836.444C1565.22,836.947 1587.1,838.808 1587.38,833.089C1595.65,833.218 1603.57,832.762 1611.27,833.848C1616.04,834.522 1620.54,837.433 1625.03,839.604C1625.69,839.919 1625.81,841.705 1625.86,842.824C1625.97,845.65 1625.86,848.485 1625.91,851.316C1625.99,856.037 1624.65,861.238 1630.11,864.655C1630.05,877.937 1629.98,890.763 1629.97,903.589C1629.96,906.692 1630.04,909.61 1626,910.546C1625.13,910.745 1624.21,912.489 1624.05,913.623C1623.36,918.636 1625.32,923.916 1617.87,926.898C1614.6,928.208 1611.64,931.065 1607.58,930.981C1595.34,930.728 1583.1,930.2 1570.86,930.154C1529.05,929.994 1238.26,929.956 1196.44,929.994C1192.25,929.998 1189.89,928.98 1189.69,924.304C1189.55,921.165 1188.84,917.809 1184.47,917.712" style="fill:rgb(173,65,47);fill-rule:nonzero;"/>
                </g>
                <g transform="matrix(0.151413,0,0,0.151413,501.091,130.062)">
                    <path d="M1184.37,918.175C1188.84,917.809 1189.55,921.165 1189.69,924.304C1189.89,928.98 1192.25,929.998 1196.44,929.994C1238.26,929.956 1529.05,929.994 1570.86,930.154C1583.1,930.2 1595.34,930.728 1607.58,930.981C1611.64,931.065 1614.6,928.208 1617.87,926.898C1625.32,923.916 1623.36,918.636 1624.05,913.623C1624.21,912.489 1625.13,910.745 1626,910.546C1630.04,909.61 1629.96,906.692 1629.97,903.589C1629.98,890.763 1630.05,877.937 1630.54,864.654C1633.23,864.062 1635.48,863.927 1637.74,863.792C1637.85,886.428 1637.99,909.063 1638.05,931.699C1638.05,932.793 1637.78,934.541 1637.09,934.88C1631.94,937.408 1626.68,941.639 1621.42,941.688C1569.65,942.167 1268.89,941.937 1217.11,941.905C1210.14,941.901 1203.18,941.854 1196.21,941.869C1189.74,941.883 1187.06,939.888 1185.95,933.416C1185.12,928.536 1184.81,923.567 1184.37,918.175Z" style="fill:rgb(123,38,29);fill-rule:nonzero;"/>
                </g>
                <g transform="matrix(0.151413,0,0,0.151413,501.091,130.062)">
                    <path d="M1637.72,863.334C1635.48,863.927 1633.23,864.062 1630.55,864.198C1624.65,861.238 1625.99,856.037 1625.91,851.316C1625.86,848.485 1625.97,845.65 1625.86,842.824C1625.81,841.705 1625.69,839.919 1625.03,839.604C1620.54,837.433 1616.04,834.522 1611.27,833.848C1603.57,832.762 1595.65,833.218 1587.01,833.126C1584.96,836.53 1582.72,838.072 1579.14,837.286C1572.18,837.034 1565.22,836.947 1558.28,836.444C1555.78,836.263 1553.36,835.036 1550.88,834.376C1548.36,833.708 1545.82,832.644 1543.29,832.625C1513.72,832.402 1235.16,832.344 1205.59,832.242C1205.09,832.24 1204.41,832.023 1204.12,832.266C1201.93,834.087 1200.09,836.603 1197.61,837.715C1195.07,838.85 1191.7,837.848 1191.25,842.358C1191.14,843.454 1187.71,844.218 1185.4,845.176C1184.8,841.589 1184.46,837.961 1184.49,834.336C1184.51,832.02 1190.08,827.582 1192.51,827.592C1194.47,827.6 1196.42,827.594 1198.67,827.594L1198.67,821.794L1625.78,821.794C1625.94,822.817 1626.17,824.21 1626.45,825.911C1628.16,826.135 1629.91,826.362 1630.8,826.476C1632.58,828.69 1634.16,830.217 1635.19,832.051C1636.19,833.843 1637.17,835.927 1637.25,837.919C1637.58,846.231 1637.58,854.556 1637.72,863.334Z" style="fill:rgb(237,133,83);fill-rule:nonzero;"/>
                </g>
                <g transform="matrix(0.151413,0,0,0.151413,501.091,130.062)">
                    <path d="M1591.27,837.421C1590.88,837.349 1590.62,837.221 1590.37,837.094C1590.56,836.899 1590.74,836.704 1590.93,836.509C1591.09,836.795 1591.25,837.081 1591.27,837.421Z" style="fill:rgb(121,33,26);fill-rule:nonzero;"/>
                </g>
            </g>
        </g>
    </g>
</svg>
