<?xml version="1.0" encoding="UTF-8" standalone="no"?>
<!DOCTYPE svg PUBLIC "-//W3C//DTD SVG 1.1//EN" "http://www.w3.org/Graphics/SVG/1.1/DTD/svg11.dtd">
<svg width="100%" height="100%" viewBox="0 0 355 119" version="1.1" xmlns="http://www.w3.org/2000/svg" xmlns:xlink="http://www.w3.org/1999/xlink" xml:space="preserve" xmlns:serif="http://www.serif.com/" style="fill-rule:evenodd;clip-rule:evenodd;stroke-linejoin:round;stroke-miterlimit:2;">
    <g transform="matrix(1,0,0,1,-1001.67,-1207.66)">
        <g transform="matrix(5.22554,0,0,5.22554,-2140.63,-556.049)">
            <g transform="matrix(1.20905,0,0,1.30438,-167.373,4.25437)">
                <g transform="matrix(0.151413,0,0,0.151413,501.091,130.062)">
                    <path d="M1089.93,923.912C1089.73,924.49 1089.54,925.067 1088.87,925.953C1086.58,926.292 1084.71,926.1 1082.94,926.426C1081.65,926.665 1079.59,927.382 1079.4,928.231C1078.53,932.068 1075.81,932.037 1072.9,932.05C1057.19,932.115 924.653,932.415 909.043,929.757C902.932,928.717 896.558,929.218 890.299,928.547C890.257,918.417 890.1,908.754 890.21,899.095C890.407,881.783 890.764,864.473 891.493,847.134C895.537,847.211 899.007,847.358 899.353,842.184C899.408,841.372 901.81,840.159 903.178,840.085C910.648,839.678 1035,839.505 1042.48,839.423C1043.65,839.41 1044.85,840.234 1046,840.743C1047.65,841.473 1049.26,842.885 1050.92,842.931C1059.23,843.161 1067.55,843.118 1075.87,843.007C1079.12,842.964 1082.98,844.311 1084.74,839.707C1084.96,839.126 1086.85,838.974 1087.97,838.975C1105.6,838.989 1123.24,839.027 1140.87,839.19C1142.16,839.201 1144.49,840.119 1144.55,840.773C1145.01,845.965 1148.74,845.004 1151.93,845.011C1156.58,845.021 1161.25,845.025 1165.89,844.792C1167.24,844.724 1169.46,844.119 1169.72,843.28C1171.31,838.119 1174.69,840.199 1177.89,841.342C1177.99,844.334 1177.99,846.896 1177.99,848.607C1175.08,849.34 1171.83,849.237 1171.16,850.499C1169.22,854.172 1163.74,853.873 1162.91,859.096C1162.58,861.167 1158.36,863.304 1155.54,864.103C1152.64,864.925 1151.39,865.94 1151,868.897C1150.85,870.092 1149.08,871.05 1148.1,872.168C1146.88,873.569 1144.85,874.929 1144.68,876.472C1143.94,883.249 1145.57,884.407 1154.09,884.378C1154,885.238 1153.91,885.728 1153.76,886.201C1153.14,888.257 1152.49,890.308 1151.86,892.361C1153.83,892.966 1155.78,893.622 1157.77,894.151C1158.56,894.36 1159.42,894.285 1160.3,894.533C1160.37,895.022 1160.27,895.259 1159.98,895.588C1160.07,896.17 1160.22,896.602 1160.76,897.007C1165,897.276 1166.31,895.33 1166.22,891.69C1166.17,889.458 1166.7,887.212 1166.96,884.576C1166.54,880.681 1166.11,877.18 1165.9,873.439C1166.31,873.088 1166.5,872.978 1166.9,873.091C1167.67,874.064 1168.24,874.813 1168.6,875.295C1171.2,873.868 1174.91,873.068 1175.43,871.322C1177.21,865.291 1181.9,866.612 1185.92,866.121C1189.58,865.675 1192.14,866.692 1192.04,871.133C1191.95,874.953 1193.85,876.817 1197.86,876.869C1204.85,876.96 1211.84,877.443 1218.83,877.577C1220.58,877.611 1222.39,877.102 1224.1,876.571C1227.1,875.636 1230.04,874.492 1233.43,873.316C1235.95,873.27 1238.04,873.344 1240.16,873.8C1241.01,875.724 1241.48,877.799 1242.76,878.627C1243.69,879.23 1246.76,878.582 1247.05,877.811C1249.23,871.948 1253.9,874.064 1257.92,874.02C1258.16,876.983 1258.6,879.946 1258.6,882.909C1258.59,897.713 1258.47,912.517 1257.78,927.686C1253.47,928.533 1249.76,928.941 1246.07,929.526C1244.17,929.828 1242.3,930.903 1240.44,930.85C1220.68,930.299 1200.92,929.604 1181.17,928.917C1174.78,928.695 1168.39,928.38 1161.79,927.79C1161.23,923.527 1159.38,922.113 1155.15,921.945C1147.94,921.659 1144.13,917.785 1143.76,911.944C1145.45,911.1 1148.18,910.615 1148.6,909.353C1149.6,906.417 1151.28,906.356 1153.8,906.048C1155.43,905.849 1157.4,904.115 1158.15,902.554C1158.66,901.483 1157.49,898.282 1156.8,898.199C1154.61,897.934 1150.63,898.123 1150.3,899.121C1148.49,904.54 1144.65,903.674 1140.64,903.324C1137.84,903.079 1134.99,903.04 1132.18,903.239C1130.84,903.334 1128.62,903.931 1128.39,904.75C1126.82,910.329 1121.51,910.021 1117.69,912.029C1116.49,912.664 1114.49,913.3 1114.34,914.189C1113.77,917.547 1111.61,917.733 1108.95,918.04C1107.27,918.234 1105.69,919.379 1104.07,920.098C1103.61,920.128 1103.15,920.157 1101.98,920.2C1099.77,920.744 1098.27,921.276 1096.37,921.803C1093.96,922.504 1091.94,923.208 1089.93,923.912M1049.25,890.871C1052.34,892.483 1057.14,891.552 1057.89,896.787C1057.95,897.153 1060.45,897.697 1061.34,897.239C1062.03,896.885 1062.6,894.476 1062.16,894.037C1058.89,890.753 1061.39,882.826 1053.55,883.21C1053.19,883.228 1052.48,882.257 1052.44,881.714C1052.11,876.461 1048.32,877.016 1044.81,877.049C1042.28,877.073 1040.15,877.505 1040.04,880.743C1039.93,883.646 1041.28,885.097 1044.1,885.247C1047.3,885.418 1048.95,887.017 1049.25,890.871M1237.03,893.407C1237.46,889.299 1235.46,887.647 1231.51,887.872C1229.7,887.975 1227.88,887.913 1226.06,887.933C1223.17,887.964 1221.91,889.537 1221.91,892.321C1221.91,894.852 1221.77,897.296 1225.25,897.923C1231.4,899.03 1235.48,897.87 1237.03,893.407M1071.43,884.133C1074.87,884.263 1077.21,883.386 1077,879.183C1076.78,874.708 1073.68,875.028 1070.68,874.895C1067.52,874.755 1065.21,875.375 1064.99,879.287C1064.74,883.562 1067.11,884.335 1071.43,884.133M1081.26,899.486C1082.04,904.528 1086.15,903.358 1088.51,902.278C1089.96,901.614 1090.94,897.737 1090.42,895.748C1090.09,894.475 1086.38,893.027 1084.67,893.487C1083.19,893.886 1082.4,896.855 1081.26,899.486M1101.98,887.161C1102.14,884.345 1101.41,881.872 1098.08,882.275C1096.36,882.484 1094.01,883.712 1093.39,885.117C1092.86,886.334 1094.13,889.759 1095.01,889.914C1097.32,890.323 1100.77,892.302 1101.98,887.161Z" style="fill:rgb(173,65,47);fill-rule:nonzero;"/>
                </g>
                <g transform="matrix(0.151413,0,0,0.151413,501.091,130.062)">
                    <path d="M891.493,847.134C891.055,843.89 891.055,840.617 891.055,837.345C891.36,837.578 891.666,837.812 891.971,838.046C893.726,835.96 895.482,833.875 898.011,830.87C921.451,830.87 1063.2,830.87 1088.55,830.794C1097.03,830.759 1105.05,830.801 1113.96,830.844C1116.92,830.823 1118.99,830.8 1121.37,830.857C1122.13,830.889 1122.56,830.841 1123,830.793C1124.06,830.82 1125.12,830.847 1126.92,830.871C1128.12,830.844 1128.58,830.82 1129.35,830.871C1130.09,830.898 1130.51,830.85 1131.35,830.853C1132.86,830.875 1133.96,830.846 1135.52,830.899C1149.62,830.976 1163.26,830.97 1177.14,831.085C1177.62,831.473 1177.85,831.738 1178.02,832.445C1177.9,835.562 1177.85,838.237 1177.8,840.912C1174.69,840.199 1171.31,838.119 1169.72,843.28C1169.46,844.119 1167.24,844.724 1165.89,844.792C1161.25,845.025 1156.58,845.021 1151.93,845.011C1148.74,845.004 1145.01,845.965 1144.55,840.773C1144.49,840.119 1142.16,839.201 1140.87,839.19C1123.24,839.027 1105.6,838.989 1087.97,838.975C1086.85,838.974 1084.96,839.126 1084.74,839.707C1082.98,844.311 1079.12,842.964 1075.87,843.007C1067.55,843.118 1059.23,843.161 1050.92,842.931C1049.26,842.885 1047.65,841.473 1046,840.743C1044.85,840.234 1043.65,839.41 1042.48,839.423C1035,839.505 910.648,839.678 903.178,840.085C901.81,840.159 899.408,841.372 899.353,842.184C899.007,847.358 895.537,847.211 891.493,847.134Z" style="fill:rgb(234,130,80);fill-rule:nonzero;"/>
                </g>
                <g transform="matrix(0.151413,0,0,0.151413,501.091,130.062)">
                    <path d="M1218.13,842.181C1217.59,836.475 1221.08,835.866 1225.88,836.793C1226.16,840.41 1228.37,839.879 1230.39,839.875C1239.54,839.855 1248.69,839.904 1257.92,840.382C1258.08,843.49 1258.37,846.167 1258.1,848.788C1257.99,849.958 1257,851.463 1255.98,852.032C1253.87,853.203 1251.46,853.847 1248.91,854.477C1247.53,854.874 1245.84,855.244 1245.4,856.19C1244.78,857.555 1245.07,859.338 1244.57,861.039C1242.42,861.598 1240.66,862.464 1238.91,862.447C1234.07,862.4 1228.16,863.547 1224.74,861.204C1222.15,859.436 1219.76,858.037 1216.9,857.492C1213,856.749 1209,856.509 1205.04,856.053C1205.03,854.723 1205.02,853.392 1205,852.062C1204.96,847.288 1209.35,842.756 1214.96,842.715C1216.05,848.489 1219.86,848.135 1223.55,847.464C1224.47,847.297 1225.77,845.854 1225.78,844.986C1225.78,844.142 1224.49,842.795 1223.54,842.537C1221.83,842.075 1219.94,842.264 1218.13,842.181Z" style="fill:rgb(176,68,49);fill-rule:nonzero;"/>
                </g>
                <g transform="matrix(0.151413,0,0,0.151413,501.091,130.062)">
                    <path d="M1104.37,920.247C1105.69,919.379 1107.27,918.234 1108.95,918.04C1111.61,917.733 1113.77,917.547 1114.34,914.189C1114.49,913.3 1116.49,912.664 1117.69,912.029C1121.51,910.021 1126.82,910.329 1128.39,904.75C1128.62,903.931 1130.84,903.334 1132.18,903.239C1134.99,903.04 1137.84,903.079 1140.64,903.324C1144.65,903.674 1148.49,904.54 1150.3,899.121C1150.63,898.123 1154.61,897.934 1156.8,898.199C1157.49,898.282 1158.66,901.483 1158.15,902.554C1157.4,904.115 1155.43,905.849 1153.8,906.048C1151.28,906.356 1149.6,906.417 1148.6,909.353C1148.18,910.615 1145.45,911.1 1143.76,911.944C1144.13,917.785 1147.94,921.659 1155.15,921.945C1159.38,922.113 1161.23,923.527 1161.98,928C1163.01,929.267 1163.62,930.007 1164.22,930.746C1158.8,933.049 1163.5,934.551 1164.43,936.615C1162.53,936.904 1160.86,936.91 1159.11,936.511C1159.19,933.366 1158.88,930.894 1155.22,931.354C1150.42,931.957 1146.66,931.311 1147.02,925.29C1139.22,925.428 1139.22,925.428 1138.11,919.129C1132.39,919.393 1126.62,919.66 1120.47,919.87C1117.08,921.663 1112.64,922.838 1111.37,925.516C1109.23,930.038 1106.33,929.192 1103,928.876C1105.05,926.94 1107.1,925.003 1109.79,922.473C1107.76,921.65 1106.22,921.023 1104.37,920.247Z" style="fill:rgb(87,23,19);fill-rule:nonzero;"/>
                </g>
                <g transform="matrix(0.151413,0,0,0.151413,501.091,130.062)">
                    <path d="M1164.54,930.75C1163.62,930.007 1163.01,929.267 1162.2,928.317C1168.39,928.38 1174.78,928.695 1181.17,928.917C1200.92,929.604 1220.68,930.299 1240.44,930.85C1242.3,930.903 1244.17,929.828 1246.07,929.526C1249.76,928.941 1253.47,928.533 1257.64,928.084C1258.12,928.78 1258.14,929.443 1258.13,930.107C1258.03,937.75 1257.88,937.954 1250.29,937.966C1227.05,938.002 1203.82,937.914 1180.59,938.065C1176.03,938.094 1173.58,936.746 1173.89,931.254C1173.51,930.401 1173.26,930.201 1172.98,930.041C1171.92,930.021 1170.86,930.001 1169.19,929.92C1167.98,930.17 1167.37,930.48 1166.76,930.79C1166.12,930.778 1165.49,930.766 1164.54,930.75Z" style="fill:rgb(122,38,29);fill-rule:nonzero;"/>
                </g>
                <g transform="matrix(0.151413,0,0,0.151413,501.091,130.062)">
                    <path d="M1177.89,841.342C1177.85,838.237 1177.9,835.562 1178.3,832.691C1179.1,836.051 1179.4,839.63 1180.03,843.154C1180.44,845.485 1181.31,847.736 1181.97,850.023C1184.17,851.043 1186.37,852.062 1188.36,853.446C1184.56,854.281 1181.19,853.208 1178.04,857.553C1176.25,860.022 1173.6,861.725 1173.3,865.261C1173.26,865.796 1172.17,866.711 1171.63,866.663C1166.74,866.229 1167.23,869.932 1166.69,872.868C1166.5,872.978 1166.31,873.088 1165.5,873.418C1163.32,873.638 1161.76,873.638 1160.13,873.638C1159.97,875.412 1159.87,876.546 1159.76,877.678C1159.63,878.943 1159.49,880.207 1159.48,880.348C1157.14,881.923 1155.6,882.961 1154.06,884C1145.57,884.407 1143.94,883.249 1144.68,876.472C1144.85,874.929 1146.88,873.569 1148.1,872.168C1149.08,871.05 1150.85,870.092 1151,868.897C1151.39,865.94 1152.64,864.925 1155.54,864.103C1158.36,863.304 1162.58,861.167 1162.91,859.096C1163.74,853.873 1169.22,854.172 1171.16,850.499C1171.83,849.237 1175.08,849.34 1177.99,848.607C1177.99,846.896 1177.99,844.334 1177.89,841.342Z" style="fill:rgb(87,23,19);fill-rule:nonzero;"/>
                </g>
                <g transform="matrix(0.151413,0,0,0.151413,501.091,130.062)">
                    <path d="M889.648,929.178C889.648,929.178 889.975,929.096 890.139,929.056C896.558,929.218 902.932,928.717 909.043,929.757C924.653,932.415 1057.19,932.115 1072.9,932.05C1075.81,932.037 1078.53,932.068 1079.4,928.231C1079.59,927.382 1081.65,926.665 1082.94,926.426C1084.71,926.1 1086.58,926.292 1088.79,926.247C1088.43,927.435 1087.93,929.322 1086.88,929.709C1083.98,930.78 1082.53,932.451 1081.36,935.394C1080.78,936.852 1077.35,937.886 1075.19,937.904C1055.14,938.071 918.219,937.978 898.163,937.955C895.843,937.952 893.522,937.915 890.748,937.881C890.294,937.868 890.269,937.893 890.254,937.538C890.194,936.456 890.15,935.728 890.08,934.632C889.918,932.569 889.783,930.874 889.648,929.178Z" style="fill:rgb(122,38,29);fill-rule:nonzero;"/>
                </g>
                <g transform="matrix(0.151413,0,0,0.151413,501.091,130.062)">
                    <path d="M1166.9,873.091C1167.23,869.932 1166.74,866.229 1171.63,866.663C1172.17,866.711 1173.26,865.796 1173.3,865.261C1173.6,861.725 1176.25,860.022 1178.04,857.553C1181.19,853.208 1184.56,854.281 1188.58,853.679C1189.27,853.859 1189.53,854.17 1189.87,855.157C1189.5,858.751 1190.19,860.825 1193.54,861.395C1195.39,861.709 1197.16,862.482 1198.97,863.048C1198.97,863.048 1199.01,863.012 1199.05,863.357C1199.69,865.19 1200.29,866.678 1201.02,868.547C1207.13,869.59 1213.12,870.253 1219.53,870.89C1224.3,871.722 1228.65,872.579 1233.01,873.435C1230.04,874.492 1227.1,875.636 1224.1,876.571C1222.39,877.102 1220.58,877.611 1218.83,877.577C1211.84,877.443 1204.85,876.96 1197.86,876.869C1193.85,876.817 1191.95,874.953 1192.04,871.133C1192.14,866.692 1189.58,865.675 1185.92,866.121C1181.9,866.612 1177.21,865.291 1175.43,871.322C1174.91,873.068 1171.2,873.868 1168.6,875.295C1168.24,874.813 1167.67,874.064 1166.9,873.091Z" style="fill:rgb(221,116,75);fill-rule:nonzero;"/>
                </g>
                <g transform="matrix(0.151413,0,0,0.151413,501.091,130.062)">
                    <path d="M1200.89,868.167C1200.29,866.678 1199.69,865.19 1199.03,863.361C1204.13,863.955 1209.28,865.182 1214.49,865.64C1216.01,865.774 1217.72,863.713 1219.35,862.659C1217.79,861.955 1216.26,860.753 1214.66,860.647C1210.99,860.405 1207.28,860.69 1205.14,856.382C1209,856.509 1213,856.749 1216.9,857.492C1219.76,858.037 1222.15,859.436 1224.74,861.204C1228.16,863.547 1234.07,862.4 1238.91,862.447C1240.66,862.464 1242.42,861.598 1244.97,861.052C1247.07,860.957 1248.38,860.944 1249.68,860.932C1251.36,861.404 1253.15,861.662 1254.69,862.416C1255.93,863.023 1256.88,864.229 1257.54,865.521C1247.26,866.125 1247.26,866.125 1245.83,873.009C1244.02,873.139 1242.08,873.278 1240.14,873.417C1238.04,873.344 1235.95,873.27 1233.43,873.316C1228.65,872.579 1224.3,871.722 1219.38,870.547C1217.45,869.521 1216.12,868.279 1214.72,868.206C1210.12,867.965 1205.5,868.147 1200.89,868.167Z" style="fill:rgb(87,23,19);fill-rule:nonzero;"/>
                </g>
                <g transform="matrix(0.151413,0,0,0.151413,501.091,130.062)">
                    <path d="M1159.19,936.916C1160.86,936.91 1162.53,936.904 1164.62,936.876C1165.08,938.854 1165.12,940.853 1165.16,942.852C1163.4,942.561 1161.65,942.25 1159.88,941.984C1157.94,941.691 1156,941.226 1154.05,941.203C1139.64,941.036 1125.24,940.961 1110.46,940.458C1110.33,938.697 1110.57,937.334 1111.1,935.766C1112.92,935.071 1114.46,934.582 1116.48,934.101C1123.67,934.048 1130.39,933.987 1137.55,934.003C1143.98,935.183 1150.62,932.989 1155.98,937.653C1156.47,938.076 1158.09,937.193 1159.19,936.916Z" style="fill:rgb(129,38,30);fill-rule:nonzero;"/>
                </g>
                <g transform="matrix(0.151413,0,0,0.151413,501.091,130.062)">
                    <path d="M1257.84,839.928C1248.69,839.904 1239.54,839.855 1230.39,839.875C1228.37,839.879 1226.16,840.41 1226.33,836.82C1227.47,831.021 1230.88,829.651 1236.15,830.013C1243.03,830.485 1249.96,830.108 1257.42,830.545C1257.93,833.972 1257.88,836.95 1257.84,839.928Z" style="fill:rgb(233,133,84);fill-rule:nonzero;"/>
                </g>
                <g transform="matrix(0.151413,0,0,0.151413,501.091,130.062)">
                    <path d="M1116.01,934.093C1114.46,934.582 1112.92,935.071 1110.7,935.801C1107.57,936.44 1105.1,936.838 1102.41,937.182C1102.19,937.127 1101.74,936.998 1101.76,936.589C1101.74,934.814 1101.7,933.448 1101.66,932.083C1101.92,931.164 1102.17,930.246 1102.71,929.102C1106.33,929.192 1109.23,930.038 1111.37,925.516C1112.64,922.838 1117.08,921.663 1120.35,920.212C1121.08,922.877 1121.56,925.143 1121.99,927.738C1119.96,930.075 1117.99,932.084 1116.01,934.093Z" style="fill:rgb(178,68,48);fill-rule:nonzero;"/>
                </g>
                <g transform="matrix(0.151413,0,0,0.151413,501.091,130.062)">
                    <path d="M1240.16,873.8C1242.08,873.278 1244.02,873.139 1245.83,873.009C1247.26,866.125 1247.26,866.125 1257.58,865.865C1258.1,868.291 1258.16,870.724 1258.07,873.588C1253.9,874.064 1249.23,871.948 1247.05,877.811C1246.76,878.582 1243.69,879.23 1242.76,878.627C1241.48,877.799 1241.01,875.724 1240.16,873.8Z" style="fill:rgb(221,116,75);fill-rule:nonzero;"/>
                </g>
                <g transform="matrix(0.151413,0,0,0.151413,501.091,130.062)">
                    <path d="M1257.92,840.382C1257.88,836.95 1257.93,833.972 1257.87,830.561C1258.51,831.843 1259.75,833.522 1259.88,835.283C1260.19,839.57 1259.97,843.895 1259.99,848.204C1260.02,853.131 1258.51,856.696 1252.73,856.719C1251.97,856.722 1251.21,857.328 1250.05,857.549C1249.49,856.531 1249.33,855.62 1249.17,854.708C1251.46,853.847 1253.87,853.203 1255.98,852.032C1257,851.463 1257.99,849.958 1258.1,848.788C1258.37,846.167 1258.08,843.49 1257.92,840.382Z" style="fill:rgb(87,23,19);fill-rule:nonzero;"/>
                </g>
                <g transform="matrix(0.151413,0,0,0.151413,501.091,130.062)">
                    <path d="M1181.98,849.564C1181.31,847.736 1180.44,845.485 1180.03,843.154C1179.4,839.63 1179.1,836.051 1178.37,832.25C1177.85,831.738 1177.62,831.473 1177.12,830.905C1176.86,830.603 1176.78,830.248 1176.78,830.248C1180.19,828.372 1181.83,830.92 1183.8,832.936C1186,835.176 1183.81,836.542 1183.26,838.468C1182.29,841.86 1182.35,845.544 1181.98,849.564Z" style="fill:rgb(72,21,15);fill-rule:nonzero;"/>
                </g>
                <g transform="matrix(0.151413,0,0,0.151413,501.091,130.062)">
                    <path d="M1217.78,842.276C1219.94,842.264 1221.83,842.075 1223.54,842.537C1224.49,842.795 1225.78,844.142 1225.78,844.986C1225.77,845.854 1224.47,847.297 1223.55,847.464C1219.86,848.135 1216.05,848.489 1215.35,842.82C1215.97,842.456 1216.7,842.414 1217.78,842.276Z" style="fill:rgb(234,130,80);fill-rule:nonzero;"/>
                </g>
                <g transform="matrix(0.151413,0,0,0.151413,501.091,130.062)">
                    <path d="M1101.74,936.998C1101.74,936.998 1102.19,937.127 1102.63,937.432C1104.68,938.765 1106.3,939.793 1107.92,940.822C1104.24,941.152 1100.56,941.856 1096.9,941.689C1094.17,941.564 1093.26,939.732 1095.97,937.214C1096.51,937.054 1096.99,937.033 1096.99,937.033C1097.43,937.02 1097.87,937.007 1098.99,936.992C1100.36,936.993 1101.05,936.996 1101.74,936.998Z" style="fill:rgb(129,38,30);fill-rule:nonzero;"/>
                </g>
                <g transform="matrix(0.151413,0,0,0.151413,501.091,130.062)">
                    <path d="M1176.36,830.22C1176.78,830.248 1176.86,830.603 1176.88,830.783C1163.26,830.97 1149.62,830.976 1135.8,830.767C1136.43,830.37 1137.23,830.187 1138.04,830.005C1138.77,830.015 1139.5,830.024 1141.05,830.044C1144.6,830.045 1147.33,830.037 1150.06,830.028C1150.48,830.038 1150.89,830.048 1152.1,830.069C1158.28,830.06 1163.67,830.039 1169.06,830.019C1171.35,830.076 1173.64,830.134 1176.36,830.22Z" style="fill:rgb(111,28,22);fill-rule:nonzero;"/>
                </g>
                <g transform="matrix(0.151413,0,0,0.151413,501.091,130.062)">
                    <path d="M1198.93,862.684C1197.16,862.482 1195.39,861.709 1193.54,861.395C1190.19,860.825 1189.5,858.751 1190.01,855.428C1192.24,856.464 1194.48,857.809 1196.54,859.39C1197.5,860.132 1198.12,861.329 1198.93,862.684Z" style="fill:rgb(87,23,19);fill-rule:nonzero;"/>
                </g>
                <g transform="matrix(0.151413,0,0,0.151413,501.091,130.062)">
                    <path d="M1248.91,854.477C1249.33,855.62 1249.49,856.531 1249.77,857.702C1249.85,858.706 1249.81,859.45 1249.73,860.563C1248.38,860.944 1247.07,860.957 1245.36,860.956C1245.07,859.338 1244.78,857.555 1245.4,856.19C1245.84,855.244 1247.53,854.874 1248.91,854.477Z" style="fill:rgb(129,38,30);fill-rule:nonzero;"/>
                </g>
                <g transform="matrix(0.151413,0,0,0.151413,501.091,130.062)">
                    <path d="M1108.25,940.814C1106.3,939.793 1104.68,938.765 1102.85,937.486C1105.1,936.838 1107.57,936.44 1110.42,936.007C1110.57,937.334 1110.33,938.697 1109.99,940.386C1109.45,940.744 1109.01,940.775 1108.25,940.814Z" style="fill:rgb(171,63,46);fill-rule:nonzero;"/>
                </g>
                <g transform="matrix(0.151413,0,0,0.151413,501.091,130.062)">
                    <path d="M1137.69,829.842C1137.23,830.187 1136.43,830.37 1135.34,830.684C1133.96,830.846 1132.86,830.875 1131.17,830.76C1130.07,830.676 1129.55,830.736 1129.04,830.796C1128.58,830.82 1128.12,830.844 1127.32,830.796C1130.01,826.233 1133.84,829.565 1137.69,829.842Z" style="fill:rgb(72,21,15);fill-rule:nonzero;"/>
                </g>
                <g transform="matrix(0.151413,0,0,0.151413,501.091,130.062)">
                    <path d="M1168.68,829.85C1163.67,830.039 1158.28,830.06 1152.41,830.055C1157.39,829.913 1162.84,829.797 1168.68,829.85Z" style="fill:rgb(72,21,15);fill-rule:nonzero;"/>
                </g>
                <g transform="matrix(0.151413,0,0,0.151413,501.091,130.062)">
                    <path d="M1121.05,830.777C1118.99,830.8 1116.92,830.823 1114.42,830.766C1116.75,830.361 1119.52,830.036 1122.38,829.947C1122,830.381 1121.53,830.579 1121.05,830.777Z" style="fill:rgb(72,21,15);fill-rule:nonzero;"/>
                </g>
                <g transform="matrix(0.151413,0,0,0.151413,501.091,130.062)">
                    <path d="M1090.34,923.955C1091.94,923.208 1093.96,922.504 1096.44,922.112C1096.96,922.631 1097.01,922.838 1097.06,923.045C1094.96,923.362 1092.86,923.68 1090.34,923.955Z" style="fill:rgb(122,38,29);fill-rule:nonzero;"/>
                </g>
                <g transform="matrix(0.151413,0,0,0.151413,501.091,130.062)">
                    <path d="M1097.39,922.992C1097.01,922.838 1096.96,922.631 1096.84,922.116C1098.27,921.276 1099.77,920.744 1101.64,920.269C1100.58,921.197 1099.15,922.068 1097.39,922.992Z" style="fill:rgb(87,23,19);fill-rule:nonzero;"/>
                </g>
                <g transform="matrix(0.151413,0,0,0.151413,501.091,130.062)">
                    <path d="M1101.76,936.589C1101.05,936.996 1100.36,936.993 1099.32,936.969C1099.75,935.492 1100.53,934.036 1101.48,932.332C1101.7,933.448 1101.74,934.814 1101.76,936.589Z" style="fill:rgb(87,23,19);fill-rule:nonzero;"/>
                </g>
                <g transform="matrix(0.151413,0,0,0.151413,501.091,130.062)">
                    <path d="M1149.71,829.863C1147.33,830.037 1144.6,830.045 1141.41,830.03C1143.75,829.903 1146.55,829.801 1149.71,829.863Z" style="fill:rgb(72,21,15);fill-rule:nonzero;"/>
                </g>
                <g transform="matrix(0.151413,0,0,0.151413,501.091,130.062)">
                    <path d="M1167.06,930.743C1167.37,930.48 1167.98,930.17 1168.8,929.925C1168.45,930.225 1167.91,930.46 1167.06,930.743Z" style="fill:rgb(87,23,19);fill-rule:nonzero;"/>
                </g>
                <g transform="matrix(0.151413,0,0,0.151413,501.091,130.062)">
                    <path d="M1121.37,830.857C1121.53,830.579 1122,830.381 1122.72,830.118C1122.97,830.054 1123,830.423 1123,830.608C1122.56,830.841 1122.13,830.889 1121.37,830.857Z" style="fill:rgb(111,28,22);fill-rule:nonzero;"/>
                </g>
                <g transform="matrix(0.151413,0,0,0.151413,501.091,130.062)">
                    <path d="M1096.87,936.987C1096.99,937.033 1096.51,937.054 1096.27,937.047C1096.26,936.919 1096.5,936.887 1096.87,936.987Z" style="fill:rgb(87,23,19);fill-rule:nonzero;"/>
                </g>
                <g transform="matrix(0.151413,0,0,0.151413,501.091,130.062)">
                    <path d="M1173.15,930.212C1173.26,930.201 1173.51,930.401 1173.87,930.831C1173.77,930.818 1173.54,930.604 1173.15,930.212Z" style="fill:rgb(87,23,19);fill-rule:nonzero;"/>
                </g>
                <g transform="matrix(0.151413,0,0,0.151413,501.091,130.062)">
                    <path d="M1049.07,890.573C1048.95,887.017 1047.3,885.418 1044.1,885.247C1041.28,885.097 1039.93,883.646 1040.04,880.743C1040.15,877.505 1042.28,877.073 1044.81,877.049C1048.32,877.016 1052.11,876.461 1052.44,881.714C1052.48,882.257 1053.19,883.228 1053.55,883.21C1061.39,882.826 1058.89,890.753 1062.16,894.037C1062.6,894.476 1062.03,896.885 1061.34,897.239C1060.45,897.697 1057.95,897.153 1057.89,896.787C1057.14,891.552 1052.34,892.483 1049.07,890.573Z" style="fill:rgb(125,33,25);fill-rule:nonzero;"/>
                </g>
                <g transform="matrix(0.151413,0,0,0.151413,501.091,130.062)">
                    <path d="M1154.09,884.378C1155.6,882.961 1157.14,881.923 1159.48,880.348C1159.49,880.207 1159.63,878.943 1159.76,877.678C1159.87,876.546 1159.97,875.412 1160.13,873.638C1161.76,873.638 1163.32,873.638 1165.28,873.659C1166.11,877.18 1166.54,880.681 1166.54,884.543C1164.49,885.005 1162.86,885.104 1160.89,885.224C1160.66,888.45 1160.46,891.394 1160.25,894.339C1159.42,894.285 1158.56,894.36 1157.77,894.151C1155.78,893.622 1153.83,892.966 1151.86,892.361C1152.49,890.308 1153.14,888.257 1153.76,886.201C1153.91,885.728 1154,885.238 1154.09,884.378Z" style="fill:rgb(230,128,82);fill-rule:nonzero;"/>
                </g>
                <g transform="matrix(0.151413,0,0,0.151413,501.091,130.062)">
                    <path d="M1237.01,893.834C1235.48,897.87 1231.4,899.03 1225.25,897.923C1221.77,897.296 1221.91,894.852 1221.91,892.321C1221.91,889.537 1223.17,887.964 1226.06,887.933C1227.88,887.913 1229.7,887.975 1231.51,887.872C1235.46,887.647 1237.46,889.299 1237.01,893.834Z" style="fill:rgb(125,33,25);fill-rule:nonzero;"/>
                </g>
                <g transform="matrix(0.151413,0,0,0.151413,501.091,130.062)">
                    <path d="M1070.99,884.139C1067.11,884.335 1064.74,883.562 1064.99,879.287C1065.21,875.375 1067.52,874.755 1070.68,874.895C1073.68,875.028 1076.78,874.708 1077,879.183C1077.21,883.386 1074.87,884.263 1070.99,884.139Z" style="fill:rgb(125,33,25);fill-rule:nonzero;"/>
                </g>
                <g transform="matrix(0.151413,0,0,0.151413,501.091,130.062)">
                    <path d="M1081.28,899.087C1082.4,896.855 1083.19,893.886 1084.67,893.487C1086.38,893.027 1090.09,894.475 1090.42,895.748C1090.94,897.737 1089.96,901.614 1088.51,902.278C1086.15,903.358 1082.04,904.528 1081.28,899.087Z" style="fill:rgb(138,38,27);fill-rule:nonzero;"/>
                </g>
                <g transform="matrix(0.151413,0,0,0.151413,501.091,130.062)">
                    <path d="M1101.94,887.544C1100.77,892.302 1097.32,890.323 1095.01,889.914C1094.13,889.759 1092.86,886.334 1093.39,885.117C1094.01,883.712 1096.36,882.484 1098.08,882.275C1101.41,881.872 1102.14,884.345 1101.94,887.544Z" style="fill:rgb(138,38,27);fill-rule:nonzero;"/>
                </g>
                <g transform="matrix(0.151413,0,0,0.151413,501.091,130.062)">
                    <path d="M1160.3,894.533C1160.46,891.394 1160.66,888.45 1160.89,885.224C1162.86,885.104 1164.49,885.005 1166.54,884.939C1166.7,887.212 1166.17,889.458 1166.22,891.69C1166.31,895.33 1165,897.276 1160.7,896.603C1160.18,895.964 1160.1,895.701 1160.03,895.438C1160.27,895.259 1160.37,895.022 1160.3,894.533Z" style="fill:rgb(111,28,22);fill-rule:nonzero;"/>
                </g>
                <g transform="matrix(0.151413,0,0,0.151413,501.091,130.062)">
                    <path d="M1159.98,895.588C1160.1,895.701 1160.18,895.964 1160.31,896.63C1160.22,896.602 1160.07,896.17 1159.98,895.588Z" style="fill:rgb(230,128,82);fill-rule:nonzero;"/>
                </g>
                <g transform="matrix(0.151413,0,0,0.151413,501.091,130.062)">
                    <path d="M1129.35,830.871C1129.55,830.736 1130.07,830.676 1130.76,830.709C1130.51,830.85 1130.09,830.898 1129.35,830.871Z" style="fill:rgb(111,28,22);fill-rule:nonzero;"/>
                </g>
                <g transform="matrix(0.151413,0,0,0.151413,501.091,130.062)">
                    <path d="M1122.04,927.408C1121.56,925.143 1121.08,922.877 1120.73,920.269C1126.62,919.66 1132.39,919.393 1138.11,919.129C1139.22,925.428 1139.22,925.428 1147.02,925.29C1146.66,931.311 1150.42,931.957 1155.22,931.354C1158.88,930.894 1159.19,933.366 1159.11,936.511C1158.09,937.193 1156.47,938.076 1155.98,937.653C1150.62,932.989 1143.98,935.183 1137.57,933.574C1137.89,928.491 1135.83,926.73 1131.36,927.088C1128.27,927.337 1125.15,927.311 1122.04,927.408Z" style="fill:rgb(221,116,75);fill-rule:nonzero;"/>
                </g>
                <g transform="matrix(0.151413,0,0,0.151413,501.091,130.062)">
                    <path d="M1201.02,868.547C1205.5,868.147 1210.12,867.965 1214.72,868.206C1216.12,868.279 1217.45,869.521 1218.96,870.572C1213.12,870.253 1207.13,869.59 1201.02,868.547Z" style="fill:rgb(170,65,47);fill-rule:nonzero;"/>
                </g>
                <g transform="matrix(0.151413,0,0,0.151413,501.091,130.062)">
                    <path d="M1121.99,927.738C1125.15,927.311 1128.27,927.337 1131.36,927.088C1135.83,926.73 1137.89,928.491 1137.14,933.497C1130.39,933.987 1123.67,934.048 1116.48,934.101C1117.99,932.084 1119.96,930.075 1121.99,927.738Z" style="fill:rgb(171,63,46);fill-rule:nonzero;"/>
                </g>
            </g>
        </g>
    </g>
</svg>
