<?xml version="1.0" encoding="UTF-8" standalone="no"?>
<!DOCTYPE svg PUBLIC "-//W3C//DTD SVG 1.1//EN" "http://www.w3.org/Graphics/SVG/1.1/DTD/svg11.dtd">
<svg width="100%" height="100%" viewBox="0 0 412 119" version="1.1" xmlns="http://www.w3.org/2000/svg" xmlns:xlink="http://www.w3.org/1999/xlink" xml:space="preserve" xmlns:serif="http://www.serif.com/" style="fill-rule:evenodd;clip-rule:evenodd;stroke-linejoin:round;stroke-miterlimit:2;">
    <g transform="matrix(1,0,0,1,-927.254,-925.926)">
        <g transform="matrix(5.22554,0,0,5.22554,-2140.63,-556.049)">
            <g transform="matrix(1.4788,0,0,1.24196,-441.935,-32.4672)">
                <g transform="matrix(0.151413,0,0,0.151413,501.091,130.062)">
                    <path d="M1286.39,917.712C1286.53,893.848 1286.66,869.984 1287.26,845.628C1289.63,844.218 1293.06,843.454 1293.17,842.358C1293.62,837.848 1296.99,838.85 1299.53,837.715C1302.01,836.603 1303.86,834.087 1306.04,832.266C1306.34,832.023 1307.01,832.24 1307.51,832.242C1337.08,832.344 1513.72,832.402 1543.29,832.625C1545.82,832.644 1548.36,833.708 1550.88,834.376C1553.36,835.036 1555.78,836.263 1558.28,836.444C1565.22,836.947 1572.18,837.034 1579.06,837.64C1578.73,842.79 1578.36,847.584 1578.31,852.382C1578.3,853.518 1579.21,854.726 1579.87,855.796C1580.91,857.487 1582.08,859.104 1583.23,860.723C1583.96,861.749 1584.62,863.399 1585.56,863.598C1589.5,864.432 1589.88,867.232 1589.92,870.385C1589.96,873.381 1589.61,876.448 1590.16,879.346C1590.48,881.016 1592.24,882.412 1593.35,883.932C1594.51,882.457 1596.68,880.959 1596.65,879.511C1596.5,872.755 1595.88,865.996 1595.06,859.283C1594.92,858.093 1593.17,856.425 1591.92,856.17C1588.35,855.443 1587.44,853.361 1587.42,850.111C1587.38,844.459 1587.1,838.808 1587.38,833.089C1595.65,833.218 1603.57,832.762 1611.27,833.848C1616.04,834.522 1620.54,837.433 1625.03,839.604C1625.69,839.919 1625.81,841.705 1625.86,842.824C1625.97,845.65 1625.86,848.485 1625.91,851.316C1625.99,856.037 1624.65,861.238 1630.11,864.655C1630.05,877.937 1629.98,890.763 1629.97,903.589C1629.96,906.692 1630.04,909.61 1626,910.546C1625.13,910.745 1624.21,912.489 1624.05,913.623C1623.36,918.636 1625.32,923.916 1617.87,926.898C1614.6,928.208 1611.64,931.065 1607.58,930.981C1595.34,930.728 1583.1,930.2 1570.86,930.154C1529.05,929.994 1340.18,929.956 1298.37,929.994C1294.18,929.998 1291.81,928.98 1291.61,924.304C1291.47,921.165 1290.77,917.809 1286.39,917.712M1591.41,837.367C1591.25,837.081 1591.09,836.795 1590.93,836.509C1590.74,836.704 1590.56,836.899 1590.37,837.094C1590.62,837.221 1590.88,837.349 1591.41,837.367Z" style="fill:rgb(173,65,47);fill-rule:nonzero;"/>
                </g>
                <g transform="matrix(0.151413,0,0,0.151413,501.091,130.062)">
                    <path d="M1286.29,918.175C1290.77,917.809 1291.47,921.165 1291.61,924.304C1291.81,928.98 1294.18,929.998 1298.37,929.994C1340.18,929.956 1529.05,929.994 1570.86,930.154C1583.1,930.2 1595.34,930.728 1607.58,930.981C1611.64,931.065 1614.6,928.208 1617.87,926.898C1625.32,923.916 1623.36,918.636 1624.05,913.623C1624.21,912.489 1625.13,910.745 1626,910.546C1630.04,909.61 1629.96,906.692 1629.97,903.589C1629.98,890.763 1630.05,877.937 1630.54,864.654C1633.23,864.062 1635.48,863.927 1637.74,863.792C1637.85,886.428 1637.99,909.063 1638.05,931.699C1638.05,932.793 1637.78,934.541 1637.09,934.88C1631.94,937.408 1626.68,941.639 1621.42,941.688C1569.65,942.167 1370.81,941.937 1319.04,941.905C1312.07,941.901 1305.1,941.854 1298.13,941.869C1291.66,941.883 1288.98,939.888 1287.88,933.416C1287.04,928.536 1286.73,923.567 1286.29,918.175Z" style="fill:rgb(123,38,29);fill-rule:nonzero;"/>
                </g>
                <g transform="matrix(0.151413,0,0,0.151413,501.091,130.062)">
                    <path d="M1637.72,863.334C1635.48,863.927 1633.23,864.062 1630.55,864.198C1624.65,861.238 1625.99,856.037 1625.91,851.316C1625.86,848.485 1625.97,845.65 1625.86,842.824C1625.81,841.705 1625.69,839.919 1625.03,839.604C1620.54,837.433 1616.04,834.522 1611.27,833.848C1603.57,832.762 1595.65,833.218 1587.01,833.126C1584.96,836.53 1582.72,838.072 1579.14,837.286C1572.18,837.034 1565.22,836.947 1558.28,836.444C1555.78,836.263 1553.36,835.036 1550.88,834.376C1548.36,833.708 1545.82,832.644 1543.29,832.625C1513.72,832.402 1337.08,832.344 1307.51,832.242C1307.01,832.24 1306.34,832.023 1306.04,832.266C1303.86,834.087 1302.01,836.603 1299.53,837.715C1296.99,838.85 1293.62,837.848 1293.17,842.358C1293.06,843.454 1289.63,844.218 1287.32,845.176C1286.73,841.589 1286.38,837.961 1286.41,834.336C1286.43,832.02 1292.01,827.582 1294.43,827.592C1296.39,827.6 1298.35,827.594 1300.6,827.594L1300.6,821.794C1360.02,821.794 1566.21,821.794 1625.78,821.794C1625.94,822.817 1626.17,824.21 1626.45,825.911C1628.16,826.135 1629.91,826.362 1630.8,826.476C1632.58,828.69 1634.16,830.217 1635.19,832.051C1636.19,833.843 1637.17,835.927 1637.25,837.919C1637.58,846.231 1637.58,854.556 1637.72,863.334Z" style="fill:rgb(237,133,83);fill-rule:nonzero;"/>
                </g>
                <g transform="matrix(0.151413,0,0,0.151413,501.091,130.062)">
                    <path d="M1579.06,837.64C1582.72,838.072 1584.96,836.53 1586.55,833.193C1587.1,838.808 1587.38,844.459 1587.42,850.111C1587.44,853.361 1588.35,855.443 1591.92,856.17C1593.17,856.425 1594.92,858.093 1595.06,859.283C1595.88,865.996 1596.5,872.755 1596.65,879.511C1596.68,880.959 1594.51,882.457 1593.35,883.932C1592.24,882.412 1590.48,881.016 1590.16,879.346C1589.61,876.448 1589.96,873.381 1589.92,870.385C1589.88,867.232 1589.5,864.432 1585.56,863.598C1584.62,863.399 1583.96,861.749 1583.23,860.723C1582.08,859.104 1580.91,857.487 1579.87,855.796C1579.21,854.726 1578.3,853.518 1578.31,852.382C1578.36,847.584 1578.73,842.79 1579.06,837.64Z" style="fill:rgb(121,33,26);fill-rule:nonzero;"/>
                </g>
                <g transform="matrix(0.151413,0,0,0.151413,501.091,130.062)">
                    <path d="M1591.27,837.421C1590.88,837.349 1590.62,837.221 1590.37,837.094C1590.56,836.899 1590.74,836.704 1590.93,836.509C1591.09,836.795 1591.25,837.081 1591.27,837.421Z" style="fill:rgb(121,33,26);fill-rule:nonzero;"/>
                </g>
            </g>
        </g>
    </g>
</svg>
