<?xml version="1.0" encoding="UTF-8" standalone="no"?>
<!DOCTYPE svg PUBLIC "-//W3C//DTD SVG 1.1//EN" "http://www.w3.org/Graphics/SVG/1.1/DTD/svg11.dtd">
<svg width="100%" height="100%" viewBox="0 0 355 119" version="1.1" xmlns="http://www.w3.org/2000/svg" xmlns:xlink="http://www.w3.org/1999/xlink" xml:space="preserve" xmlns:serif="http://www.serif.com/" style="fill-rule:evenodd;clip-rule:evenodd;stroke-linejoin:round;stroke-miterlimit:2;">
    <g transform="matrix(1,0,0,1,-1001.67,-925.926)">
        <g transform="matrix(5.22554,0,0,5.22554,-2140.63,-556.049)">
            <g transform="matrix(1.11275,0,0,1.31179,-78.9669,-28.0663)">
                <g transform="matrix(0.151413,0,0,0.151413,501.091,130.062)">
                    <path d="M1127.8,813.127C1127.67,813.417 1127.57,813.719 1127.38,814.234C1127.25,814.433 1127.01,814.434 1126.62,814.333C1119.4,814.17 1112.56,814.375 1105.77,813.938C1101.97,813.695 1098.27,812.274 1094.48,811.61C1093.17,811.38 1091.68,811.655 1090.36,812.008C1088.24,812.574 1086.2,813.936 1084.09,814.013C1077.44,814.253 1070.77,814.258 1064.13,813.908C1061.9,813.79 1059.78,812.206 1057.54,811.538C1056.32,811.172 1054.86,810.995 1053.65,811.303C1051.08,811.957 1048.62,813.733 1046.1,813.746C1010.81,813.931 911.129,813.921 875.839,813.873C872.395,813.869 868.944,812.978 865.51,813.056C856.212,813.269 757.97,813.933 748.673,814.041C746.93,814.061 745.138,812.38 743.424,811.389C742.506,810.858 741.706,810.123 740.852,809.48C740.25,810.345 739.585,811.174 739.065,812.085C738.629,812.849 738.362,813.709 737.507,815.751C736.584,813.527 735.799,812.451 735.725,811.327C735.233,803.911 734.695,796.489 734.542,789.061C734.104,767.768 733.842,746.472 733.897,725.183C736.402,724.832 738.598,724.715 740.616,724.052C742.573,723.409 744.335,721.405 746.203,721.376C762.531,721.121 867.816,721.16 884.147,721.167C885.612,721.167 887.103,721.441 888.536,721.782C891.303,722.442 894.039,723.883 896.787,723.878C918.831,723.839 1005.29,722.609 1027.23,725.839C1028.74,726.061 1031.33,726.783 1031.41,727.499C1032,732.752 1035.76,732.009 1039.21,732.194C1041.18,732.299 1043.14,732.693 1045.1,733.029C1048.7,733.65 1052.3,734.325 1055.97,735.152C1056.05,735.327 1056.03,735.706 1056.06,736.128C1057.43,741.045 1058.62,745.586 1060.2,749.993C1060.51,750.865 1062.27,751.712 1063.37,751.724C1067.73,751.772 1068.08,754.504 1068.65,757.942C1069.31,761.869 1070.98,765.625 1071.8,769.567C1065.86,770.397 1066.93,774.537 1067.26,778.044C1067.57,781.456 1070.34,781.393 1072.89,781.367C1077,781.325 1078.33,778.972 1078.06,775.219C1077.91,773.242 1077.89,771.257 1078.26,769.197C1087.83,768.301 1087.83,768.301 1088.39,761.02C1088.58,761.005 1088.95,761.066 1088.99,761.475C1090.43,762.641 1091.81,764.011 1093.22,764.046C1099.1,764.19 1104.98,763.932 1111.06,764.127C1113.08,764.727 1114.97,765.482 1116.7,765.219C1120.28,764.676 1123.78,763.591 1127.41,763.204C1127.61,780.162 1127.7,796.645 1127.8,813.127" style="fill:rgb(175,65,47);fill-rule:nonzero;"/>
                </g>
                <g transform="matrix(0.151413,0,0,0.151413,501.091,130.062)">
                    <path d="M1073.49,823.156C1050.59,823.425 963.757,823.872 941.32,823.832C911.231,823.78 881.144,823.277 851.056,823.135C843.254,823.098 746.498,823.794 738.691,823.949C732.602,824.07 729.86,821.348 729.602,815.315C729.197,805.864 728.835,796.41 728.464,786.021C728.43,772.064 728.387,759.043 728.344,746.022C728.391,741.283 728.439,736.544 728.498,730.901C728.664,728.254 728.818,726.512 729.343,724.818C730.718,724.904 731.723,724.941 732.922,725.031C733.118,725.083 733.512,725.178 733.512,725.178C733.842,746.472 734.104,767.768 734.542,789.061C734.695,796.489 735.233,803.911 735.725,811.327C735.799,812.451 736.584,813.527 737.507,815.751C738.362,813.709 738.629,812.849 739.065,812.085C739.585,811.174 740.25,810.345 740.852,809.48C741.706,810.123 742.506,810.858 743.424,811.389C745.138,812.38 746.93,814.061 748.673,814.041C757.97,813.933 856.212,813.269 865.51,813.056C868.944,812.978 872.395,813.869 875.839,813.873C911.129,813.921 1010.81,813.931 1046.1,813.746C1048.62,813.733 1051.08,811.957 1053.65,811.303C1054.86,810.995 1056.32,811.172 1057.54,811.538C1059.78,812.206 1061.9,813.79 1064.13,813.908C1070.77,814.258 1077.44,814.253 1084.09,814.013C1086.2,813.936 1088.24,812.574 1090.36,812.008C1091.68,811.655 1093.17,811.38 1094.48,811.61C1098.27,812.274 1101.97,813.695 1105.77,813.938C1112.56,814.375 1119.4,814.17 1126.63,814.773C1127.28,817.252 1127.52,819.19 1127.76,821.129C1125.62,821.723 1123.48,822.805 1121.34,822.834C1105.55,823.047 1089.75,823.049 1073.49,823.156Z" style="fill:rgb(122,38,29);fill-rule:nonzero;"/>
                </g>
                <g transform="matrix(0.151413,0,0,0.151413,501.091,130.062)">
                    <path d="M733.897,725.183C733.512,725.178 733.118,725.083 732.928,724.634C732.79,722.868 732.842,721.55 733.096,720.083C733.429,719.631 733.559,719.327 734.02,718.955C735.378,718.098 736.405,717.31 737.672,716.585C738.313,716.479 738.406,716.206 738.191,715.828C739.607,712.403 742.64,712.93 745.41,712.926C780.868,712.872 905.278,712.833 940.735,712.796C948.06,712.789 1019.78,712.694 1027.1,712.921C1028.47,712.964 1029.81,714.342 1031.21,715.936C1030.9,719.685 1032.62,719.924 1034.92,719.829C1038.48,719.683 1042.04,719.79 1046.28,719.79C1045.5,722.081 1045.08,723.287 1044.9,723.835C1046.03,725.064 1046.84,726.08 1047.79,726.949C1048.63,727.712 1049.66,728.946 1050.52,728.876C1055.24,728.487 1056.14,731.161 1055.9,734.978C1052.3,734.325 1048.7,733.65 1045.1,733.029C1043.14,732.693 1041.18,732.299 1039.21,732.194C1035.76,732.009 1032,732.752 1031.41,727.499C1031.33,726.783 1028.74,726.061 1027.23,725.839C1005.29,722.609 918.831,723.839 896.787,723.878C894.039,723.883 891.303,722.442 888.536,721.782C887.103,721.441 885.612,721.167 884.147,721.167C867.816,721.16 762.531,721.121 746.203,721.376C744.335,721.405 742.573,723.409 740.616,724.052C738.598,724.715 736.402,724.832 733.897,725.183Z" style="fill:rgb(234,130,80);fill-rule:nonzero;"/>
                </g>
                <g transform="matrix(0.151413,0,0,0.151413,501.091,130.062)">
                    <path d="M1107.03,712.733C1108.72,712.8 1110.41,712.868 1112.98,712.954C1118.22,712.961 1122.58,712.949 1126.93,712.938C1126.93,712.938 1126.95,713.05 1127.03,713.495C1127.05,716.678 1126.98,719.418 1126.46,722.156C1109.6,722.121 1093.2,722.169 1076.81,721.997C1072.68,721.953 1068.19,723.336 1064.59,719.669C1064.08,719.161 1062.19,720.02 1060.56,720.095C1054.79,720.294 1058.35,715.721 1056.86,713.928C1057.03,713.576 1057.2,713.224 1057.98,712.71C1073.73,712.613 1088.87,712.677 1104.39,712.814C1105.52,712.835 1106.27,712.784 1107.03,712.733Z" style="fill:rgb(237,133,83);fill-rule:nonzero;"/>
                </g>
                <g transform="matrix(0.151413,0,0,0.151413,501.091,130.062)">
                    <path d="M1056.6,713.923C1058.35,715.721 1054.79,720.294 1060.48,720.504C1060.65,723.629 1060.45,726.133 1064.11,726.506C1064.78,726.573 1065.73,727.802 1065.84,728.597C1066.84,735.505 1074.82,736.049 1077.54,741.577C1078.63,743.803 1081.47,746.036 1083.88,746.545C1087.36,747.279 1088.24,748.911 1087.98,752.209C1088.21,754.026 1088.62,755.546 1089.02,757.467C1088.99,758.933 1088.97,760 1088.95,761.066C1088.95,761.066 1088.58,761.005 1088.01,760.928C1084.16,758.598 1080.87,756.347 1077.22,753.854C1077.04,752.687 1076.77,750.959 1076.49,749.208C1073.08,749.096 1069.52,749.598 1069.79,744.67C1069.82,744.203 1069.02,743.235 1068.7,743.274C1063.02,743.963 1063.94,739.271 1063.06,736.058C1060.59,735.934 1058.31,735.82 1056.03,735.706C1056.03,735.706 1056.05,735.327 1055.97,735.152C1056.14,731.161 1055.24,728.487 1050.52,728.876C1049.66,728.946 1048.63,727.712 1047.79,726.949C1046.84,726.08 1046.03,725.064 1044.9,723.835C1045.08,723.287 1045.5,722.081 1046.28,719.79C1042.04,719.79 1038.48,719.683 1034.92,719.829C1032.62,719.924 1030.9,719.685 1031.32,716.362C1034.39,716.528 1037.4,717.085 1040.4,717.673C1042.63,718.109 1044.98,718.268 1047.05,719.116C1050.22,720.421 1052.65,721.003 1053.8,716.691C1054.08,715.617 1055.47,714.835 1056.6,713.923Z" style="fill:rgb(87,23,19);fill-rule:nonzero;"/>
                </g>
                <g transform="matrix(0.151413,0,0,0.151413,501.091,130.062)">
                    <path d="M1128.03,812.798C1127.7,796.645 1127.61,780.162 1127.55,762.785C1127.66,760.248 1127.94,758.578 1127.74,756.97C1127.51,755.167 1126.91,751.942 1126.34,751.913C1124.21,751.802 1122.04,753.105 1119.85,753.217C1115.96,753.414 1116.66,760.092 1111.85,758.097C1111.86,755.654 1111.84,753.707 1111.89,751.446C1112.91,742.961 1118.88,743.789 1124.57,744.094C1125.38,744.138 1126.21,744.053 1127.06,744.057C1127.09,744.088 1127.15,744.147 1127.15,744.147C1127.16,744.978 1126.98,745.869 1127.22,746.631C1133.4,766.621 1129.22,787.062 1129.81,807.289C1129.86,808.999 1128.8,810.742 1128.03,812.798Z" style="fill:rgb(74,20,16);fill-rule:nonzero;"/>
                </g>
                <g transform="matrix(0.151413,0,0,0.151413,501.091,130.062)">
                    <path d="M1104.02,712.741C1088.87,712.677 1073.73,712.613 1058.1,712.445C1058.36,711.58 1059.1,710.149 1059.83,710.157C1074.28,710.318 1088.72,710.646 1103.59,711.259C1104.02,711.965 1104.02,712.353 1104.02,712.741Z" style="fill:rgb(87,23,19);fill-rule:nonzero;"/>
                </g>
                <g transform="matrix(0.151413,0,0,0.151413,501.091,130.062)">
                    <path d="M1126.92,722.157C1126.98,719.418 1127.05,716.678 1127.08,713.488C1127.7,714.982 1128.67,716.884 1128.93,718.878C1129.75,725.241 1130.6,731.63 1130.8,738.029C1130.86,739.943 1128.83,741.923 1127.45,744.01C1127.15,744.147 1127.09,744.088 1127.08,743.587C1127.03,736.11 1126.97,729.133 1126.92,722.157Z" style="fill:rgb(74,20,16);fill-rule:nonzero;"/>
                </g>
                <g transform="matrix(0.151413,0,0,0.151413,501.091,130.062)">
                    <path d="M890.775,716.523C889.748,717.31 888.721,718.098 887.126,718.742C885.378,717.68 884.199,716.762 883.02,715.845C885.297,711.052 887.665,714.858 890.29,716.048C890.577,716.325 890.775,716.523 890.775,716.523Z" style="fill:rgb(72,21,15);fill-rule:nonzero;"/>
                </g>
                <g transform="matrix(0.151413,0,0,0.151413,501.091,130.062)">
                    <path d="M882.315,724.77C882.161,726.512 882.007,728.254 881.816,730.426C879.908,727.147 879.191,723.409 881.828,719.624C882.276,719.872 882.376,720.089 882.433,720.675C882.366,722.287 882.34,723.528 882.315,724.77Z" style="fill:rgb(72,21,15);fill-rule:nonzero;"/>
                </g>
                <g transform="matrix(0.151413,0,0,0.151413,501.091,130.062)">
                    <path d="M1112.84,712.085C1117.3,711.948 1121.77,711.811 1126.15,711.837C1121.65,712.028 1117.24,712.056 1112.84,712.085Z" style="fill:rgb(74,20,16);fill-rule:nonzero;"/>
                </g>
                <g transform="matrix(0.151413,0,0,0.151413,501.091,130.062)">
                    <path d="M882.475,720.305C882.376,720.089 882.276,719.872 882.041,719.325C882.166,718.141 882.427,717.288 882.854,716.14C884.199,716.762 885.378,717.68 886.795,718.81C886.902,719.327 886.772,719.631 886.061,720.042C884.479,720.2 883.477,720.253 882.475,720.305Z" style="fill:rgb(122,38,29);fill-rule:nonzero;"/>
                </g>
                <g transform="matrix(0.151413,0,0,0.151413,501.091,130.062)">
                    <path d="M1112.86,712.264C1117.24,712.056 1121.65,712.028 1126.52,712.006C1126.99,712.012 1126.97,712.477 1126.95,712.707C1122.58,712.949 1118.22,712.961 1113.4,712.887C1112.94,712.801 1112.88,712.443 1112.86,712.264Z" style="fill:rgb(87,23,19);fill-rule:nonzero;"/>
                </g>
                <g transform="matrix(0.151413,0,0,0.151413,501.091,130.062)">
                    <path d="M1127.98,820.874C1127.52,819.19 1127.28,817.252 1127.03,814.874C1127.01,814.434 1127.25,814.433 1127.35,814.472C1127.71,816.546 1127.96,818.583 1127.98,820.874Z" style="fill:rgb(74,20,16);fill-rule:nonzero;"/>
                </g>
                <g transform="matrix(0.151413,0,0,0.151413,501.091,130.062)">
                    <path d="M1104.39,712.814C1104.02,712.353 1104.02,711.965 1104.02,711.286C1104.9,711.415 1105.78,711.834 1106.85,712.493C1106.27,712.784 1105.52,712.835 1104.39,712.814Z" style="fill:rgb(74,20,16);fill-rule:nonzero;"/>
                </g>
                <g transform="matrix(0.151413,0,0,0.151413,501.091,130.062)">
                    <path d="M891.015,716.585C890.775,716.523 890.577,716.325 890.577,716.185C890.727,715.972 890.879,715.899 891.282,715.827C891.749,716.206 891.656,716.479 891.015,716.585Z" style="fill:rgb(122,38,29);fill-rule:nonzero;"/>
                </g>
                <g transform="matrix(0.151413,0,0,0.151413,501.091,130.062)">
                    <path d="M1056.06,736.128C1058.31,735.82 1060.59,735.934 1063.06,736.058C1063.94,739.271 1063.02,743.963 1068.7,743.274C1069.02,743.235 1069.82,744.203 1069.79,744.67C1069.52,749.598 1073.08,749.096 1076.49,749.208C1076.77,750.959 1077.04,752.687 1077.22,753.854C1080.87,756.347 1084.16,758.598 1087.83,760.943C1087.83,768.301 1087.83,768.301 1077.92,769.162C1075.48,769.29 1073.85,769.373 1072.21,769.456C1070.98,765.625 1069.31,761.869 1068.65,757.942C1068.08,754.504 1067.73,751.772 1063.37,751.724C1062.27,751.712 1060.51,750.865 1060.2,749.993C1058.62,745.586 1057.43,741.045 1056.06,736.128Z" style="fill:rgb(221,116,75);fill-rule:nonzero;"/>
                </g>
                <g transform="matrix(0.151413,0,0,0.151413,501.091,130.062)">
                    <path d="M1111.83,758.592C1116.66,760.092 1115.96,753.414 1119.85,753.217C1122.04,753.105 1124.21,751.802 1126.34,751.913C1126.91,751.942 1127.51,755.167 1127.74,756.97C1127.94,758.578 1127.66,760.248 1127.45,762.309C1123.78,763.591 1120.28,764.676 1116.7,765.219C1114.97,765.482 1113.08,764.727 1111.08,763.74C1111.21,761.553 1111.52,760.059 1111.81,758.545C1111.78,758.525 1111.83,758.592 1111.83,758.592Z" style="fill:rgb(230,128,82);fill-rule:nonzero;"/>
                </g>
                <g transform="matrix(0.151413,0,0,0.151413,501.091,130.062)">
                    <path d="M1111.83,758.564C1111.52,760.059 1111.21,761.553 1110.88,763.435C1104.98,763.932 1099.1,764.19 1093.22,764.046C1091.81,764.011 1090.43,762.641 1088.99,761.475C1088.97,760 1088.99,758.933 1089.49,757.445C1097.22,757.994 1104.78,754.698 1111.83,758.564Z" style="fill:rgb(72,21,15);fill-rule:nonzero;"/>
                </g>
                <g transform="matrix(0.151413,0,0,0.151413,501.091,130.062)">
                    <path d="M1071.8,769.567C1073.85,769.373 1075.48,769.29 1077.46,769.242C1077.89,771.257 1077.91,773.242 1078.06,775.219C1078.33,778.972 1077,781.325 1072.89,781.367C1070.34,781.393 1067.57,781.456 1067.26,778.044C1066.93,774.537 1065.86,770.397 1071.8,769.567Z" style="fill:rgb(129,34,26);fill-rule:nonzero;"/>
                </g>
                <g transform="matrix(0.151413,0,0,0.151413,501.091,130.062)">
                    <path d="M882.433,720.675C883.477,720.253 884.479,720.2 885.859,720.19C886.185,721.55 886.133,722.868 886.075,724.582C885.065,724.941 884.061,724.904 882.686,724.818C882.34,723.528 882.366,722.287 882.433,720.675Z" style="fill:rgb(175,65,47);fill-rule:nonzero;"/>
                </g>
                <g transform="matrix(0.151413,0,0,0.151413,501.091,130.062)">
                    <path d="M1126.46,722.156C1126.97,729.133 1127.03,736.11 1127.05,743.557C1126.21,744.053 1125.38,744.138 1124.57,744.094C1118.88,743.789 1112.91,742.961 1111.44,751.496C1103.33,751.877 1095.74,751.895 1088.15,751.913C1088.24,748.911 1087.36,747.279 1083.88,746.545C1081.47,746.036 1078.63,743.803 1077.54,741.577C1074.82,736.049 1066.84,735.505 1065.84,728.597C1065.73,727.802 1064.78,726.573 1064.11,726.506C1060.45,726.133 1060.65,723.629 1060.87,720.655C1062.19,720.02 1064.08,719.161 1064.59,719.669C1068.19,723.336 1072.68,721.953 1076.81,721.997C1093.2,722.169 1109.6,722.121 1126.46,722.156Z" style="fill:rgb(173,67,49);fill-rule:nonzero;"/>
                </g>
                <g transform="matrix(0.151413,0,0,0.151413,501.091,130.062)">
                    <path d="M1087.98,752.209C1095.74,751.895 1103.33,751.877 1111.37,751.81C1111.84,753.707 1111.86,755.654 1111.85,758.097C1111.83,758.592 1111.78,758.525 1111.81,758.545C1104.78,754.698 1097.22,757.994 1089.49,757.044C1088.62,755.546 1088.21,754.026 1087.98,752.209Z" style="fill:rgb(111,28,22);fill-rule:nonzero;"/>
                </g>
            </g>
        </g>
    </g>
</svg>
