<?xml version="1.0" encoding="UTF-8" standalone="no"?>
<!DOCTYPE svg PUBLIC "-//W3C//DTD SVG 1.1//EN" "http://www.w3.org/Graphics/SVG/1.1/DTD/svg11.dtd">
<svg width="100%" height="100%" viewBox="0 0 1024 1024" version="1.1" xmlns="http://www.w3.org/2000/svg" xmlns:xlink="http://www.w3.org/1999/xlink" xml:space="preserve" xmlns:serif="http://www.serif.com/" style="fill-rule:evenodd;clip-rule:evenodd;stroke-linejoin:round;stroke-miterlimit:2;">
    <path d="M652.31,445.309C655.901,445.745 659.854,445.385 662.992,446.814C667.144,448.705 670.79,451.83 674.411,454.729C678.662,458.133 678.733,463.163 678.749,468.04C678.761,471.529 678.489,475.018 678.362,478.508C678.332,479.328 678.093,480.294 678.426,480.952C681.621,487.258 679.86,493.559 674.85,498.533C673.014,500.355 672.978,504.335 672.881,507.355C672.852,508.276 675.228,509.726 676.728,510.166C684.031,512.311 691.41,514.195 699.422,516.349C699.105,510.508 698.871,505.245 698.524,499.99C697.603,486.041 701.784,473.042 705.908,460.034C708.12,453.059 710.514,446.14 712.602,439.129C713.091,437.491 712.958,435.528 712.625,433.809C711.176,426.322 709.52,418.876 708.016,411.399C707.832,410.481 707.462,409.321 709.5,409.254C710.843,409.211 710.582,413.485 714.353,417.315C714.667,417.248 714.98,417.181 715.294,417.114C715.294,411.813 715.306,402.999 715.704,400.106C715.812,399.319 717.322,398.471 717.678,399.754C718.106,401.295 719.25,411.066 720.082,410.715C720.537,410.523 720.628,401.145 720.989,399.532C721.609,396.755 723.959,397.969 724.157,399.294C724.184,399.476 724.417,410.981 724.935,410.96C725.464,410.94 725.998,399.493 726.001,399.475C726.405,397.045 728.582,397.679 728.607,399.606C728.647,402.741 728.737,410.971 729.775,413.873C730.401,415.623 730.217,417.663 730.444,419.999C733.287,418.254 731.678,413.306 734.815,411.214C735.152,410.989 737.175,412.165 737.15,412.569C737.041,414.367 736.683,419.461 735.557,422.585C734.178,426.411 732.653,430.879 729.726,433.292C725.234,436.996 723.796,441.453 723.082,446.611C721.739,456.332 720.463,466.062 719.151,475.787C718.929,477.433 719.017,479.231 718.365,480.692C714.235,489.941 718.622,498.133 721.08,506.607C723.012,500.222 725.589,494.093 726.649,487.712C728.909,474.104 745.359,463.724 758.912,467.205C765.088,468.792 769.043,473.078 773.36,476.76C775.449,478.542 775.527,482.881 776.142,486.133C776.724,489.21 777.155,492.391 777.054,495.507C776.848,501.896 776.258,508.273 775.777,514.651C775.717,515.445 774.961,516.378 775.203,516.974C777.445,522.506 779.836,527.978 782.218,533.549C785.017,529.412 788.533,525.377 790.638,520.707C792.126,517.407 791.189,513.094 792.247,509.501C793.995,503.56 796.548,497.86 798.633,492.013C800.291,487.362 801.765,482.645 803.3,477.951C803.61,477.003 803.557,475.809 804.129,475.093C812.185,464.99 817.315,452.419 829.091,445.443C833.872,442.612 838.705,441.315 844.312,443.175C847.285,444.161 851.347,442.992 853.669,444.6C860.982,449.666 866.88,456.242 869.706,464.997C871.836,471.596 873.975,478.197 875.872,484.865C877.166,489.413 877.801,494.158 879.248,498.648C879.794,500.342 881.604,502.504 883.175,502.831C888.399,503.918 890.612,507.523 892.659,511.814C893.764,514.129 895.708,516.042 898.213,519.395C901.896,510.638 905.108,503.006 908.311,495.37C908.504,494.911 908.525,494.355 908.794,493.958C912.91,487.888 913.497,480.78 915.229,473.929C916.372,469.41 919.941,465.505 922.602,461.027C923.224,462.132 923.896,463.326 924.654,464.672C925.902,463.008 927.157,461.336 928.411,459.664C928.86,459.85 929.308,460.037 929.757,460.223C929.109,463.624 928.461,467.026 927.652,471.267C933.005,469.856 937.793,468.594 944.019,466.953C942.739,469.509 942.176,470.634 941.564,471.856C943.353,471.964 945.104,472.069 948.432,472.27C945.382,474.607 943.414,476.115 941.244,477.778C952.667,482.13 954.486,490.762 952.63,501.885C951.595,508.086 952.754,514.654 952.845,521.695C952.655,522.518 952.544,522.703 952.434,522.888C951.452,522.026 950.47,521.163 949.489,520.302C947.715,522.466 945.94,524.628 944.165,526.787C945.01,531.485 948.02,533.593 952.557,534.531C960.674,536.21 966.938,540.019 968.504,549.176C969.075,552.509 970.76,555.652 972.199,559.603C974.981,554.186 977.398,549.478 979.816,544.77C980.303,544.891 980.79,545.012 981.278,545.133C981.356,546.452 981.434,547.77 981.473,549.457C981.46,550.078 981.487,550.332 981.514,550.586C981.682,550.398 981.85,550.209 982.018,550.021C984.188,548.653 986.32,547.221 988.537,545.936C990.806,544.622 993.158,543.452 995.248,542.34C993.668,548.097 992.697,553.007 990.927,557.609C989.739,560.696 987.962,564.008 985.485,566.053C980.707,569.998 979.122,574.931 982.033,580.645C986.429,589.275 980.805,602.978 971.451,605.57C968.966,606.259 966.019,605.281 963.451,605.081C966.227,622.264 969.045,639.71 971.899,658.026C972.103,661.371 972.148,663.863 972.461,666.321C973.519,674.624 973.555,674.619 965.743,676.731C965.508,678.43 965.261,680.217 964.608,682.002C960.099,681.039 956.143,680.494 952.418,677.593C946.942,673.328 942.564,674.275 938.862,678.76C932.644,686.294 930.001,686.304 923.861,678.815C918.423,672.183 112.087,672.21 107.057,674.707C104.987,675.734 76.498,681.901 72.842,682.632C73.679,675.165 69.233,672.918 63.406,672.526C63.677,668.93 63.898,665.992 64.432,662.849C65.268,660.137 65.791,657.631 66.314,655.125C71.227,633.348 76.14,611.572 81.308,588.663C75.632,592.792 71.612,596.087 67.227,598.792C63.392,601.157 60.391,599.944 57.495,596.171C51.459,588.31 46.927,580.052 46.808,569.874C46.798,569.059 46.669,568.134 46.27,567.452C42.257,560.598 43.695,553.11 43.591,545.789C43.579,544.934 43.033,543.926 42.425,543.282C41.767,542.586 40.726,542.264 39.887,541.726C31.912,536.613 31.04,532.979 37.205,522.927C34.13,520.962 30.545,518.671 26.959,516.38C27.42,515.853 27.88,515.326 28.341,514.8C35.444,515.56 39.178,522.293 45.608,525.346C46.309,525.614 46.552,525.59 46.795,525.566C46.697,525.218 46.599,524.869 46.501,524.521L46.501,517.652C47.045,517.659 47.589,517.667 48.133,517.674C52.762,524.011 57.019,530.458 54.647,539.002C54.476,539.617 54.487,540.369 54.667,540.983C56.952,548.818 59.284,556.64 61.603,564.466C62.221,564.568 62.839,564.67 63.456,564.772C65.616,559.43 67.814,554.102 69.925,548.741C72.163,543.059 73.995,537.186 76.691,531.736C77.597,529.903 80.456,528.623 82.683,527.936C88.703,526.08 94.872,524.712 100.961,523.071C102.507,522.655 103.974,521.944 105.756,521.261C105.109,519.347 104.606,517.856 104.046,516.198C103.032,516.907 102.293,517.424 101.139,518.233C100.932,516.635 100.778,515.443 100.54,513.604C99.57,514.678 98.935,515.381 98.704,515.636C97.722,513.143 96.347,510.484 95.644,507.658C94.822,504.35 93.602,500.678 94.297,497.552C95.84,490.611 98.153,483.788 100.732,477.142C104.72,466.864 115.288,461.879 124.039,465.421C124.493,465.605 125.051,465.923 125.449,465.803C134.618,463.04 138.746,469.434 142.136,475.725C148.832,488.149 150.67,500.701 141.793,513.341C139.035,517.268 143.915,520.098 146.063,522.041C149.769,525.394 154.739,527.35 159.411,530.025C165.285,518.929 162.706,504.227 177.508,499.434C176.131,498.897 174.755,498.36 173.17,497.742C173.944,496.788 174.54,496.053 175.235,495.194C174.039,493.771 172.823,492.324 172.284,491.682C173.283,489.682 174.016,488.216 174.998,486.436C179.622,488.345 182.601,484.969 185.892,483.24C186.384,482.981 185.879,480.824 185.835,479.545C186.087,477.24 186.339,474.936 186.196,472.222C185.662,471.7 185.525,471.587 185.388,471.474C186.603,467.399 187.787,463.314 189.044,459.252C189.97,456.26 190.588,453.084 192.039,450.361C197.635,439.861 206.753,433.348 217.581,429.125C223.23,426.922 228.652,427.728 234.478,429.965C239.561,431.917 244.425,433.863 248.568,437.34C252.184,440.375 254.161,444.081 252.966,449.094C252.624,450.529 253.414,452.209 253.545,453.789C253.947,458.631 252.719,463.018 251.088,467.654C249.674,471.674 250.794,476.585 250.794,482.269C249.726,480.471 249.19,479.569 248.605,478.586C248.35,478.95 248.058,479.172 248.051,479.403C247.89,484.963 251.449,488.203 256.626,486.687C259.987,485.702 263.093,483.831 266.287,482.301C267.331,481.801 268.222,480.84 269.302,480.573C278.642,478.27 285.346,471.419 293.289,466.723C295.074,465.667 296.802,464.087 297.879,462.332C304.484,451.578 310.951,440.738 317.339,429.853C319.692,425.844 321.878,421.714 323.789,417.481C324.551,415.794 324.96,413.525 324.509,411.785C322.354,403.465 326.953,397.226 330.377,390.16C334.935,393.193 331.814,396.479 331.205,400.749C333.129,399.261 334.601,398.473 335.592,397.285C337.824,394.608 339.665,391.6 341.952,388.977C344.06,386.56 344.465,386.716 345.762,389.663C343.706,392.995 342.128,395.837 340.55,398.68C341.028,398.994 341.506,399.308 341.984,399.622C343.967,397.4 345.95,395.179 347.933,392.957C350.151,391.885 352.369,390.814 354.587,389.742C354.937,390.229 355.288,390.716 355.639,391.203C355.483,391.605 353.487,395.158 353.674,395.401C353.893,395.686 355.001,392.359 355.864,391.587C356.315,391.183 356.804,393.027 356.839,393.129C357.224,394.253 356.73,399.454 354.148,402.341C355.169,402.655 356.048,402.925 357.821,403.469C352.216,408.519 346.968,413.006 342.023,417.804C339.529,420.223 336.761,422.885 335.54,425.995C330.984,437.599 327.097,449.465 322.775,461.164C321.581,464.395 319.748,467.391 318.691,469.524C322.26,474.721 325.474,479.402 328.451,483.737C329.979,478.989 331.485,473.841 333.398,468.849C333.696,468.071 335.846,467.685 337.147,467.668C341.981,467.605 346.818,467.866 351.652,467.832C360.483,467.769 367.418,470.859 372.041,478.81C374.682,483.353 374.664,487.855 373.825,492.763C373.064,497.213 366.942,500.537 371.03,505.975C367.868,509.68 364.718,513.395 361.538,517.084C360.429,518.37 358.248,519.679 358.35,520.817C358.474,522.199 360.298,524.204 361.729,524.558C367.894,526.082 372.131,529.568 374.527,535.92C375.148,535.152 375.696,534.767 375.822,534.274C377.982,525.808 383.204,521.279 392.112,520.769C393.863,520.669 395.587,518.774 397.175,517.52C398.965,516.106 400.534,514.414 402.299,512.966C403.807,511.73 406.646,510.825 406.821,509.5C407.347,505.511 409.276,501.554 405.359,497.424C396.656,488.251 388.584,478.466 380.516,468.715C378.947,466.818 377.952,464 377.724,461.512C375.784,440.264 378.025,419.318 382.275,398.47C383.98,390.106 385.169,381.835 383.474,372.884C381.732,363.689 383.087,353.907 383.087,344.382C383.74,344.218 384.392,344.055 385.045,343.892C386.26,347.469 387.476,351.046 388.692,354.623C389.004,354.682 389.317,354.741 389.629,354.8C390.078,351.216 390.368,347.603 391.028,344.059C391.532,341.351 390.567,337.541 394.793,337.192C395.13,337.164 396.063,341.855 396.344,344.395C396.616,346.854 396.403,349.367 396.403,352.065C397.854,346.519 399.121,341.099 400.778,335.801C401.132,334.67 402.9,333.982 404.017,333.089C404.373,334.34 405.048,335.598 405.023,336.842C404.962,339.825 404.573,342.802 405.064,345.942C406.429,342.507 407.795,339.072 409.16,335.637C409.754,335.782 410.348,335.926 410.942,336.071C413.434,340.42 411.768,345.038 411.164,349.603C410.55,354.236 410.019,358.881 409.289,364.849C414.63,361.468 414.643,354.111 422.426,355.39C418.613,362.697 416.425,370.457 410.002,375.564C405.8,378.906 404.157,382.967 404.009,388.053C403.588,402.414 403.989,416.658 407.467,430.747C408.891,436.516 409.549,442.602 409.566,448.547C409.579,452.992 410.658,455.788 414.864,457.429C416.979,458.253 418.855,459.688 420.793,460.82C434.167,449.593 449.501,456.207 456.018,473.352C458.627,480.214 462.581,482.836 470.239,482.447C471.011,482.407 471.875,482.622 472.572,482.969C477.348,485.345 482.116,487.736 486.832,490.228C489.517,491.646 491.504,490.967 490.967,487.975C490.176,483.564 491.32,478.505 486.152,475.244C484.032,473.906 483.372,470.103 482.277,467.331C481.162,464.507 480.307,461.759 483.577,459.328C484.387,458.725 484.1,456.109 483.736,454.555C481.947,446.932 484.903,439.887 487.571,433.391C490.138,427.14 496.948,424.795 503.667,423.885C517.615,421.997 528.44,431.283 531.75,445.176C532.659,448.993 532.187,453.073 536.046,456.13C538.482,458.059 535.827,468.933 533.118,471.137C532.627,471.536 531.992,471.866 531.697,472.383C528.986,477.124 531.223,487.573 534.249,489.744C538.749,488.98 542.27,488.884 545.399,487.728C549.627,486.166 553.906,484.277 557.531,481.654C563.8,477.119 570.851,475.378 578.214,474.18C579.306,474.002 580.451,473.721 581.404,473.187C590.219,468.25 599.094,463.404 607.733,458.171C610.564,456.457 613.24,454.029 615.142,451.332C619.924,444.552 624.374,437.523 628.682,430.427C634.884,420.207 641.053,409.953 646.754,399.451C648.123,396.928 647.685,393.381 647.909,390.292C648.111,387.501 647.303,384.369 648.306,381.955C650.937,375.624 654.313,369.602 657.544,363.151C663.074,367.46 658.048,372.615 659.282,378.346C661.444,376.577 663.32,375.461 664.636,373.879C667.508,370.426 669.936,366.596 672.89,363.222C673.856,362.119 675.889,361.951 677.433,361.355C677.2,362.828 677.323,364.486 676.669,365.739C674.502,369.891 672.054,373.897 669.714,377.959C670.16,378.32 670.605,378.681 671.05,379.043C674.111,376.463 677.179,373.892 680.227,371.298C680.987,370.651 681.572,369.611 682.433,369.308C684.344,368.636 686.38,368.315 688.365,367.852C687.899,369.672 687.512,371.519 686.927,373.3C686.684,374.039 686.018,374.639 685.491,375.376C687.06,375.915 688.559,376.429 690.057,376.943C689.456,378.597 689.296,380.679 688.179,381.835C681.501,388.743 674.585,395.42 667.789,402.215C666.072,403.932 663.702,405.529 662.997,407.637C658.988,419.622 655.393,431.745 651.427,444.415C651.24,445.282 651.282,445.555 651.325,445.829C651.653,445.656 651.982,445.482 652.31,445.309M630.065,480.028C617.254,491.426 606.91,504.138 608.419,522.892C607.999,522.869 608.725,523.126 609.253,522.906C618.133,519.217 627.037,515.578 635.788,511.603C636.934,511.082 638.109,508.579 637.82,507.329C636.981,503.7 636.622,500.342 633.609,496.772C630.437,493.014 631.492,485.688 630.065,480.028M277.911,523.271C277.408,524.346 276.905,525.42 276.241,526.839C283.785,524.598 284.519,523.251 282.272,516.37C280.885,518.532 279.566,520.589 277.911,523.271Z" style="fill:rgb(85,84,85);fill-rule:nonzero;"/>
    <path d="M46.331,524.68C46.599,524.869 46.697,525.218 46.795,525.566C46.552,525.59 46.309,525.614 45.949,525.407C45.834,525.175 46.16,524.84 46.331,524.68Z" style="fill:rgb(241,241,237);fill-rule:nonzero;"/>
    <path d="M981.97,549.962C981.85,550.209 981.682,550.398 981.514,550.586C981.487,550.332 981.46,550.078 981.633,549.803C981.833,549.781 981.923,549.903 981.97,549.962Z" style="fill:rgb(241,241,237);fill-rule:nonzero;"/>
    <path d="M652.128,445.128C651.982,445.482 651.653,445.656 651.325,445.829C651.282,445.555 651.24,445.282 651.388,444.798C651.701,444.707 651.824,444.827 652.128,445.128Z" style="fill:rgb(241,241,237);fill-rule:nonzero;"/>
</svg>
